<svg xmlns="http://www.w3.org/2000/svg" viewBox="0 0 119.97 152.71"><path d="M47,134.08a44.35,44.35,0,0,1-31.29-12.87,6.22,6.22,0,0,1,8.76-8.84,31.68,31.68,0,1,0,44.64-45,6.22,6.22,0,0,1,8.75-8.83A44,44,0,0,1,47,134.08Z" fill="#00b0ea"/><path d="M46.76,96.09a6.2,6.2,0,0,1-4.37-1.8A44.06,44.06,0,0,1,73.2,18.76h0a44.14,44.14,0,0,1,31.29,12.91,6.22,6.22,0,0,1-8.76,8.83,31.77,31.77,0,0,0-22.53-9.3h0A31.53,31.53,0,0,0,41.66,63a31.83,31.83,0,0,0,9.48,22.48,6.22,6.22,0,0,1-4.38,10.63Z" fill="#e95296"/><path d="M46.84,152.71a64,64,0,0,1-45-18.33,6.22,6.22,0,0,1,8.71-8.88c20.1,19.74,52.57,19.73,72.38,0A49.69,49.69,0,0,0,97.66,89.84,50.2,50.2,0,0,0,82.44,54a12.68,12.68,0,0,0-9-3.73h0A12.74,12.74,0,0,0,64.48,72a25.17,25.17,0,0,1-34.92,36.25l-.26-.17-.49-.49a62.62,62.62,0,0,1-.58-89.17c24.64-24.56,64.94-24.59,89.88-.08a6.22,6.22,0,0,1-8.72,8.86C89.3,7.47,56.83,7.48,37,27.25A49.64,49.64,0,0,0,22.31,62.84,50.28,50.28,0,0,0,37.05,98.28l.24.15.5.49a12.73,12.73,0,0,0,21.7-9.09,12.6,12.6,0,0,0-3.76-9,25.17,25.17,0,0,1,17.63-43h.09a25,25,0,0,1,17.73,7.31,62.61,62.61,0,0,1,.55,89.13A63.34,63.34,0,0,1,46.84,152.71Z" fill="#fff"/></svg>