<svg xmlns="http://www.w3.org/2000/svg" viewBox="0 0 256 256"><path d="M163.33,195.53c9.8,2.82,19.28,9.38,17.25,21.11-1.35,7.8-7.26,14.35-15.51,14.55-31.91.77-45,2.18-65.1-7-8.92-4.08-14.15-12.41-17.83-21.3,34.83,22,42.3,19.38,82.41,18.4a6.43,6.43,0,0,0,6.32-6.29c0-9.6-7.25-11.31-20.8-13.8-11.66-2.14-21.49-1.7-30.19-9.54C90.36,165,63.31,160.49,28.77,176.49,18.91,181.06,9.42,186.92,0,192.26V241c13-4.34,27.59-9.79,40.61-13,5.72-1.43,10.84.16,16,2.92,34.3,18.24,36,18.07,74.73,24.57a29.85,29.85,0,0,0,14.57-.82c48.64-15,52.75-16.65,101.91-47.45,16-10.06,6.24-26.38-10.83-19.41-3,1.22-6,2.4-9,3.6,1.66-5.58-6.43-9.41-14.45-6.43-1.78.67-3.75,1.54-5.9,2.59.66-6-7.49-9.77-18.92-5.11-2.78,1.13-19.68,10.52-25.47,13.09Z" fill="#fff" fill-rule="evenodd"/><path d="M213.71,69.2a53.6,53.6,0,0,0,4.07-19.37c0-44.76-52.81-66.21-83-35.26-30.18-30.95-83-9.5-83,35.26A53.41,53.41,0,0,0,55.86,69.2h.07a51.91,51.91,0,0,0,7.28,14.54C80.38,111.87,113.14,139,134.78,150c21.27-10.82,53.26-37.19,70.66-64.79a51.74,51.74,0,0,0,8.1-16Z" fill="#fff" fill-rule="evenodd"/></svg>