<svg xmlns="http://www.w3.org/2000/svg" viewBox="0 0 121.98 136.66"><rect x="39.2" y="8.55" width="16.8" height="16.8" rx="1" fill="#fff"/><path d="M94.51,23.25H2.1A2.1,2.1,0,0,0,0,25.34V134.56a2.1,2.1,0,0,0,2.1,2.1H94.51a2.1,2.1,0,0,0,2.1-2.1V25.34A2.1,2.1,0,0,0,94.51,23.25ZM86.11,122a2.1,2.1,0,0,1-2.1,2.1H26.6L10.5,108V38a2.1,2.1,0,0,1,2.1-2.1H84a2.1,2.1,0,0,1,2.1,2.1Z" fill="#fff"/><rect x="22.4" y="56.85" width="8.4" height="8.4" rx="1" fill="#fff"/><rect x="37.1" y="58.12" width="33.6" height="6.3" rx="1" fill="#fff"/><rect x="22.4" y="75.75" width="8.4" height="8.4" rx="1" fill="#fff"/><rect x="37.1" y="77.02" width="33.6" height="6.3" rx="1" fill="#fff"/><rect x="22.4" y="94.65" width="8.4" height="8.4" rx="1" fill="#fff"/><rect x="37.1" y="95.92" width="33.6" height="6.3" rx="1" fill="#fff"/><rect x="28.7" y="16.95" width="37.8" height="12.6" rx="1" fill="#fff"/><path d="M24.5,108h-14l16.1,16.11v-14A2.1,2.1,0,0,0,24.5,108Z" fill="#eceff1"/><path d="M120.33,0H84a1.65,1.65,0,0,0-1.65,1.65V38A1.65,1.65,0,0,0,84,39.67h36.37A1.65,1.65,0,0,0,122,38V1.65A1.65,1.65,0,0,0,120.33,0Zm-6.61,21.49a1.65,1.65,0,0,1-1.65,1.65h-6.62v6.61a1.65,1.65,0,0,1-1.65,1.66h-3.31a1.65,1.65,0,0,1-1.65-1.66V23.14H92.23a1.65,1.65,0,0,1-1.65-1.65V18.18a1.65,1.65,0,0,1,1.65-1.65h6.61V9.92a1.66,1.66,0,0,1,1.65-1.66h3.31a1.66,1.66,0,0,1,1.65,1.66v6.61h6.62a1.65,1.65,0,0,1,1.65,1.65Z" fill="#fff"/></svg>