<svg xmlns="http://www.w3.org/2000/svg" viewBox="0 0 148.93 93.09"><path d="M92.77,0H3.65A3.64,3.64,0,0,0,0,3.65v85.8a3.64,3.64,0,0,0,3.65,3.64H92.77a3.65,3.65,0,0,0,3.65-3.64V3.65A3.65,3.65,0,0,0,92.77,0ZM21.61,86.44a6.65,6.65,0,1,1,6.65-6.65A6.65,6.65,0,0,1,21.61,86.44Zm26.6-4a.73.73,0,0,1-.73.73H39a.73.73,0,0,1-.73-.73V77.2a.73.73,0,0,1,.73-.73h8.52a.73.73,0,0,1,.73.73Zm15,0a.73.73,0,0,1-.73.73H53.92a.73.73,0,0,1-.73-.73V77.2a.73.73,0,0,1,.73-.73h8.52a.73.73,0,0,1,.73.73Zm15,0a.73.73,0,0,1-.73.73H68.89a.73.73,0,0,1-.73-.73V77.2a.72.72,0,0,1,.73-.73H77.4a.73.73,0,0,1,.73.73Zm6.65-17.72A1.82,1.82,0,0,1,83,66.49H13.46a1.81,1.81,0,0,1-1.82-1.82V10.13a1.82,1.82,0,0,1,1.82-1.82H83a1.83,1.83,0,0,1,1.82,1.82Z" fill="#fff"/><path d="M93,88.26a2.53,2.53,0,0,0,2.53-2.53v-5a10.12,10.12,0,0,1,10.1-10.11h17.69a15.18,15.18,0,0,0,15.17-15.16v-5a2.53,2.53,0,0,0-5.06,0v5a10.12,10.12,0,0,1-10.11,10.11H105.65A15.18,15.18,0,0,0,90.49,80.68v5A2.53,2.53,0,0,0,93,88.26Z" fill="#fff"/><path d="M129.88,17.4h12.88a6.19,6.19,0,0,1,6.17,6.17v9.79a6.19,6.19,0,0,1-4.63,6V54.47a6.2,6.2,0,0,1-6.18,6.18h-3.6a6.2,6.2,0,0,1-6.18-6.18V39.33a6.2,6.2,0,0,1-4.64-6V23.57A6.19,6.19,0,0,1,129.88,17.4Z" fill="#fff"/></svg>