<svg xmlns="http://www.w3.org/2000/svg" viewBox="0 0 1063 244.87"><path d="M559.45,202.2a9.64,9.64,0,0,0-3.31-2.89,10.16,10.16,0,0,0-4.87-1.09,10.4,10.4,0,0,0-3,.45,8.81,8.81,0,0,0-2.74,1.37,7.14,7.14,0,0,0-2,2.33,6.87,6.87,0,0,0-.75,3.3,6.16,6.16,0,0,0,.72,3.14,7,7,0,0,0,1.93,2.1,10.91,10.91,0,0,0,2.74,1.42c1,.38,2.09.75,3.21,1.12,1.37.45,2.76.94,4.16,1.46a15,15,0,0,1,3.77,2,9.88,9.88,0,0,1,2.73,3.2,10,10,0,0,1,1.06,4.9,10.81,10.81,0,0,1-1.13,5.12,10.68,10.68,0,0,1-2.94,3.56,12.25,12.25,0,0,1-4.13,2.07,16.7,16.7,0,0,1-4.68.67,18.19,18.19,0,0,1-3.58-.36,16.65,16.65,0,0,1-3.42-1.1,14,14,0,0,1-3-1.84,13.68,13.68,0,0,1-2.46-2.58l3.47-2.58a10.61,10.61,0,0,0,3.61,3.56,10.24,10.24,0,0,0,5.46,1.43,10.5,10.5,0,0,0,3.08-.48,8.54,8.54,0,0,0,2.83-1.45,8.15,8.15,0,0,0,2.07-2.41,6.62,6.62,0,0,0,.81-3.33,6.72,6.72,0,0,0-.81-3.45,7.15,7.15,0,0,0-2.16-2.29,12.85,12.85,0,0,0-3.08-1.54c-1.15-.41-2.37-.82-3.64-1.24s-2.59-.87-3.86-1.4a13,13,0,0,1-3.42-2,9.59,9.59,0,0,1-2.43-3.11,11.31,11.31,0,0,1,.22-9.46,10.54,10.54,0,0,1,3-3.42,12.58,12.58,0,0,1,4.09-2,16.58,16.58,0,0,1,4.42-.61,15.31,15.31,0,0,1,6.89,1.42,12,12,0,0,1,4.31,3.39Z" fill="#007d64"/><path d="M595.46,221.57v.84a8.24,8.24,0,0,1-.06,1H573.67a10.16,10.16,0,0,0,.79,3.69,9.22,9.22,0,0,0,2,3,9.63,9.63,0,0,0,3,2,9.95,9.95,0,0,0,8.87-.62,10.16,10.16,0,0,0,3.28-3.16l2.85,2.24a14.12,14.12,0,0,1-5.18,4.26,14.59,14.59,0,0,1-6.07,1.28,14,14,0,0,1-5.41-1,12.5,12.5,0,0,1-4.28-2.89,13.51,13.51,0,0,1-2.83-4.36,14.31,14.31,0,0,1-1-5.49,14.69,14.69,0,0,1,1-5.49,13.48,13.48,0,0,1,2.8-4.37,13,13,0,0,1,9.41-3.92,13.32,13.32,0,0,1,5.43,1,11.07,11.07,0,0,1,3.92,2.8,11.93,11.93,0,0,1,2.38,4.11A15.14,15.14,0,0,1,595.46,221.57Zm-3.87-1.23a9.4,9.4,0,0,0-2.38-6.13,8.08,8.08,0,0,0-6.3-2.44,9,9,0,0,0-3.53.7,9.51,9.51,0,0,0-4.81,4.65,8.68,8.68,0,0,0-.84,3.22Z" fill="#007d64"/><path d="M622.67,235.46c-.07-.71-.13-1.49-.17-2.35s0-1.57,0-2.13h-.11a8.7,8.7,0,0,1-3.64,3.73,10.66,10.66,0,0,1-5.32,1.42c-3.33,0-5.82-1-7.48-3a11.81,11.81,0,0,1-2.49-7.84V209.25h3.81v14.51a19.53,19.53,0,0,0,.33,3.75,8,8,0,0,0,1.15,2.88,5.47,5.47,0,0,0,2.18,1.88,7.83,7.83,0,0,0,3.45.67,7.22,7.22,0,0,0,5.49-2.49,9.49,9.49,0,0,0,1.79-3.19,13.89,13.89,0,0,0,.67-4.57V209.25h3.81v20.44c0,.71,0,1.63,0,2.75s.1,2.13.17,3Z" fill="#007d64"/><path d="M674,221.57v.84c0,.3,0,.62,0,1H652.24a10.36,10.36,0,0,0,.78,3.69,9.41,9.41,0,0,0,2,3,9.7,9.7,0,0,0,3,2,10,10,0,0,0,8.88-.62,10.16,10.16,0,0,0,3.28-3.16l2.85,2.24a14.2,14.2,0,0,1-5.18,4.26,14.59,14.59,0,0,1-6.07,1.28,13.94,13.94,0,0,1-5.41-1,12.5,12.5,0,0,1-4.28-2.89,13.51,13.51,0,0,1-2.83-4.36,14.31,14.31,0,0,1-1-5.49,14.69,14.69,0,0,1,1-5.49,13.32,13.32,0,0,1,2.8-4.37,13,13,0,0,1,9.41-3.92,13.38,13.38,0,0,1,5.43,1,11.07,11.07,0,0,1,3.92,2.8,11.93,11.93,0,0,1,2.38,4.11A15.39,15.39,0,0,1,674,221.57Zm-3.86-1.23a9.46,9.46,0,0,0-2.38-6.13,8.11,8.11,0,0,0-6.3-2.44,8.93,8.93,0,0,0-3.53.7,9.44,9.44,0,0,0-2.85,1.91,9.24,9.24,0,0,0-2,2.74,8.68,8.68,0,0,0-.84,3.22Z" fill="#007d64"/><path d="M688,221.91l-9.68-12.66h4.87l7.17,10,7.16-10h4.6l-9.52,12.49L703,235.46H698.1l-7.78-10.92-8,10.92h-4.59Z" fill="#007d64"/><path d="M725.49,218.5a6.57,6.57,0,0,0-1.8-5.06,7.37,7.37,0,0,0-5.2-1.67,11.23,11.23,0,0,0-4.37.84,10.52,10.52,0,0,0-3.42,2.24l-2.13-2.52a12.64,12.64,0,0,1,4.29-2.68,16.07,16.07,0,0,1,6-1.07,13,13,0,0,1,4,.59,9.37,9.37,0,0,1,3.25,1.76,8.1,8.1,0,0,1,2.19,3,10.49,10.49,0,0,1,.78,4.2v11.48c0,1,0,2.06.11,3.14a22.66,22.66,0,0,0,.34,2.74H726.1c-.11-.63-.2-1.32-.28-2.07s-.11-1.47-.11-2.18h-.11a11.18,11.18,0,0,1-4.06,3.78,12,12,0,0,1-5.46,1.14,12.17,12.17,0,0,1-3.11-.42,8.84,8.84,0,0,1-2.91-1.37,7.6,7.6,0,0,1-2.18-2.48,7.31,7.31,0,0,1-.87-3.7,7.05,7.05,0,0,1,1.54-4.81,9.21,9.21,0,0,1,4.11-2.64,24.35,24.35,0,0,1,5.91-1.12q3.33-.26,6.92-.26Zm-1.12,3.86c-1.57,0-3.15.06-4.74.19a21.48,21.48,0,0,0-4.31.79,8,8,0,0,0-3.16,1.71,3.8,3.8,0,0,0-1.23,3,4.74,4.74,0,0,0,.53,2.36,4.4,4.4,0,0,0,1.43,1.54,6.1,6.1,0,0,0,2,.84,10.19,10.19,0,0,0,2.21.25,8.66,8.66,0,0,0,3.58-.7,7.5,7.5,0,0,0,2.63-1.91,8.45,8.45,0,0,0,1.63-2.77,9.77,9.77,0,0,0,.56-3.3v-2Z" fill="#007d64"/><path d="M746.07,210a9.7,9.7,0,0,1,5.18-1.43,11.53,11.53,0,0,1,2.21.23,7.35,7.35,0,0,1,2.24.86,8,8,0,0,1,2,1.71,9.58,9.58,0,0,1,1.6,2.75A9.85,9.85,0,0,1,763,210a10.35,10.35,0,0,1,5.51-1.43q5,0,7.48,3a11.79,11.79,0,0,1,2.49,7.84v16.07h-3.81V221a12.67,12.67,0,0,0-1.54-6.67c-1-1.68-2.77-2.52-5.23-2.52a6.79,6.79,0,0,0-3.5.84,6.7,6.7,0,0,0-2.3,2.22,9.72,9.72,0,0,0-1.26,3.1,16.39,16.39,0,0,0-.39,3.59v13.94h-3.81V220.17a19.59,19.59,0,0,0-.28-3.47,7.12,7.12,0,0,0-1-2.66,4.52,4.52,0,0,0-1.93-1.68,7.33,7.33,0,0,0-3.14-.59,6.59,6.59,0,0,0-2.71.62,7.11,7.11,0,0,0-2.47,1.88,9.81,9.81,0,0,0-1.76,3.19,13.87,13.87,0,0,0-.67,4.56v13.44h-3.81V215c0-.71,0-1.62-.06-2.74s-.09-2.13-.16-3h3.64c.07.71.13,1.5.16,2.36s.06,1.56.06,2.12h.11A8.93,8.93,0,0,1,746.07,210Z" fill="#007d64"/><path d="M812.17,221.57v.84a8.13,8.13,0,0,1,0,1H790.39a10.36,10.36,0,0,0,.78,3.69,9.41,9.41,0,0,0,2,3,9.7,9.7,0,0,0,3,2,10,10,0,0,0,8.88-.62,10.16,10.16,0,0,0,3.28-3.16l2.85,2.24a14.2,14.2,0,0,1-5.18,4.26,14.59,14.59,0,0,1-6.07,1.28,13.94,13.94,0,0,1-5.41-1,12.5,12.5,0,0,1-4.28-2.89,13.51,13.51,0,0,1-2.83-4.36,14.31,14.31,0,0,1-1-5.49,14.69,14.69,0,0,1,1-5.49,13.32,13.32,0,0,1,2.8-4.37,13,13,0,0,1,9.41-3.92,13.38,13.38,0,0,1,5.43,1,11.07,11.07,0,0,1,3.92,2.8,11.93,11.93,0,0,1,2.38,4.11A15.39,15.39,0,0,1,812.17,221.57Zm-3.86-1.23a9.46,9.46,0,0,0-2.38-6.13,8.09,8.09,0,0,0-6.3-2.44,8.93,8.93,0,0,0-3.53.7,9.44,9.44,0,0,0-2.85,1.91,9.24,9.24,0,0,0-2,2.74,8.68,8.68,0,0,0-.84,3.22Z" fill="#007d64"/><path d="M850.87,218.5a6.61,6.61,0,0,0-1.79-5.06,7.4,7.4,0,0,0-5.21-1.67,11.27,11.27,0,0,0-4.37.84,10.48,10.48,0,0,0-3.41,2.24L834,212.33a12.59,12.59,0,0,1,4.28-2.68,16.07,16.07,0,0,1,6-1.07,13.12,13.12,0,0,1,4,.59,9.55,9.55,0,0,1,3.25,1.76,8.08,8.08,0,0,1,2.18,3,10.49,10.49,0,0,1,.78,4.2v11.48c0,1,0,2.06.12,3.14a21,21,0,0,0,.33,2.74h-3.41c-.12-.63-.21-1.32-.28-2.07a20.46,20.46,0,0,1-.12-2.18H851a11.11,11.11,0,0,1-4.06,3.78,12,12,0,0,1-5.46,1.14,12.23,12.23,0,0,1-3.11-.42,8.84,8.84,0,0,1-2.91-1.37,7.72,7.72,0,0,1-2.18-2.48,7.31,7.31,0,0,1-.87-3.7,7.05,7.05,0,0,1,1.54-4.81,9.25,9.25,0,0,1,4.12-2.64,24.17,24.17,0,0,1,5.9-1.12q3.33-.26,6.92-.26Zm-1.12,3.86c-1.57,0-3.15.06-4.73.19a21.22,21.22,0,0,0-4.31.79,8.09,8.09,0,0,0-3.17,1.71,3.8,3.8,0,0,0-1.23,3,4.84,4.84,0,0,0,.53,2.36,4.49,4.49,0,0,0,1.43,1.54,6.19,6.19,0,0,0,2,.84,10.26,10.26,0,0,0,2.21.25,8.63,8.63,0,0,0,3.58-.7,7.54,7.54,0,0,0,2.64-1.91,8.43,8.43,0,0,0,1.62-2.77,9.77,9.77,0,0,0,.56-3.3v-2Z" fill="#007d64"/><path d="M875.51,212.45h-7.39v15.28a8.52,8.52,0,0,0,.28,2.41,3.32,3.32,0,0,0,.81,1.49,2.74,2.74,0,0,0,1.26.72,5.63,5.63,0,0,0,1.57.2,6.58,6.58,0,0,0,1.65-.22,8.37,8.37,0,0,0,1.65-.62l.17,3.3a10.53,10.53,0,0,1-2.1.59,13.55,13.55,0,0,1-2.38.2,10,10,0,0,1-2.24-.28,5.62,5.62,0,0,1-2.18-1.07,5.76,5.76,0,0,1-1.66-2.12,8.25,8.25,0,0,1-.64-3.53V212.45h-5.43v-3.2h5.43v-7.39h3.81v7.39h7.39Z" fill="#007d64"/><path d="M905.3,221.57v.84c0,.3,0,.62,0,1H883.52a10.15,10.15,0,0,0,.78,3.69,9.41,9.41,0,0,0,2,3,9.58,9.58,0,0,0,3,2,10,10,0,0,0,8.88-.62,10.12,10.12,0,0,0,3.27-3.16l2.86,2.24a14.28,14.28,0,0,1-5.18,4.26,14.63,14.63,0,0,1-6.08,1.28,13.93,13.93,0,0,1-5.4-1,12.5,12.5,0,0,1-4.28-2.89,13.51,13.51,0,0,1-2.83-4.36,14.31,14.31,0,0,1-1-5.49,14.69,14.69,0,0,1,1-5.49,13.16,13.16,0,0,1,2.8-4.37,12.79,12.79,0,0,1,4.2-2.88,13,13,0,0,1,5.21-1,13.38,13.38,0,0,1,5.43,1,11.16,11.16,0,0,1,3.92,2.8,12.09,12.09,0,0,1,2.38,4.11A15.39,15.39,0,0,1,905.3,221.57Zm-3.86-1.23a9.46,9.46,0,0,0-2.38-6.13,8.11,8.11,0,0,0-6.3-2.44,8.93,8.93,0,0,0-3.53.7,9.49,9.49,0,0,0-2.86,1.91,9.62,9.62,0,0,0-2,2.74,9.09,9.09,0,0,0-.84,3.22Zm-7.67-16.46h-3.31l5.6-8.07h5.1Z" fill="#007d64"/><path d="M938.23,235.46H934l-10.7-26.21h4.26l8.51,22.18h.11l8.57-22.18h4.09Z" fill="#007d64"/><path d="M980.84,222.36a14.31,14.31,0,0,1-1,5.49,13,13,0,0,1-2.89,4.36,12.89,12.89,0,0,1-4.42,2.89,15.9,15.9,0,0,1-11.26,0,13,13,0,0,1-4.42-2.89,13.16,13.16,0,0,1-2.88-4.36,15,15,0,0,1,0-11,12.89,12.89,0,0,1,7.3-7.25,15.76,15.76,0,0,1,11.26,0,12.94,12.94,0,0,1,7.31,7.25A14.31,14.31,0,0,1,980.84,222.36Zm-4,0a11.93,11.93,0,0,0-.7-4.12,9.92,9.92,0,0,0-2-3.36,9.35,9.35,0,0,0-3.13-2.27,9.93,9.93,0,0,0-4.15-.84,9.68,9.68,0,0,0-4.11.84,9.47,9.47,0,0,0-3.11,2.27,10.08,10.08,0,0,0-2,3.36,12.45,12.45,0,0,0,0,8.23,10.08,10.08,0,0,0,2,3.36,9,9,0,0,0,3.11,2.24,9.83,9.83,0,0,0,4.11.82,10.08,10.08,0,0,0,4.15-.82,8.88,8.88,0,0,0,3.13-2.24,9.92,9.92,0,0,0,2-3.36A11.87,11.87,0,0,0,976.81,222.36Z" fill="#007d64"/><path d="M1007.89,215.25a7.27,7.27,0,0,0-2.77-2.5,8.23,8.23,0,0,0-4-1,10.2,10.2,0,0,0-4.14.82,9.32,9.32,0,0,0-3.17,2.24,9.8,9.8,0,0,0-2,3.36,12,12,0,0,0-.7,4.17,11.84,11.84,0,0,0,.7,4.14,10,10,0,0,0,2,3.33,8.88,8.88,0,0,0,3.13,2.24,10,10,0,0,0,4.15.82,8.41,8.41,0,0,0,7.11-3.42l2.85,2.13a12.49,12.49,0,0,1-4.11,3.3,12.89,12.89,0,0,1-5.85,1.23,15.33,15.33,0,0,1-5.77-1,12.62,12.62,0,0,1-4.4-2.89,13.19,13.19,0,0,1-2.83-4.36,15.57,15.57,0,0,1,0-11A13.23,13.23,0,0,1,991,212.5a12.74,12.74,0,0,1,4.4-2.88,15.33,15.33,0,0,1,5.77-1,13.74,13.74,0,0,1,5.34,1.15,10.56,10.56,0,0,1,4.4,3.39Z" fill="#007d64"/><path d="M1040.88,221.57v.84a8.24,8.24,0,0,1-.06,1h-21.73a10.16,10.16,0,0,0,.79,3.69,9.22,9.22,0,0,0,2,3,9.63,9.63,0,0,0,3,2,9.95,9.95,0,0,0,8.87-.62,10.16,10.16,0,0,0,3.28-3.16l2.85,2.24a14.12,14.12,0,0,1-5.18,4.26,14.59,14.59,0,0,1-6.07,1.28,14,14,0,0,1-5.41-1,12.5,12.5,0,0,1-4.28-2.89,13.51,13.51,0,0,1-2.83-4.36,14.31,14.31,0,0,1-1-5.49,14.69,14.69,0,0,1,1-5.49,13.48,13.48,0,0,1,2.8-4.37,13,13,0,0,1,9.41-3.92,13.35,13.35,0,0,1,5.43,1,11.07,11.07,0,0,1,3.92,2.8,11.93,11.93,0,0,1,2.38,4.11A15.39,15.39,0,0,1,1040.88,221.57Zm-3.87-1.23a9.4,9.4,0,0,0-2.38-6.13,8.08,8.08,0,0,0-6.3-2.44,9,9,0,0,0-3.53.7,9.51,9.51,0,0,0-4.81,4.65,8.68,8.68,0,0,0-.84,3.22Zm.06-16.46h-3.7l-4.65-6-4.64,6h-3.7l6.1-8.07H1031Z" fill="#007d64"/><path d="M1054.32,232.77a3,3,0,0,1-.84,2.1,3,3,0,0,1-4.37,0,3,3,0,0,1-.84-2.1,3.05,3.05,0,0,1,.84-2.1,3.05,3.05,0,0,1,4.37,0A3.05,3.05,0,0,1,1054.32,232.77Z" fill="#007d64"/><path d="M0,116.82V58.92A10.16,10.16,0,0,1,10.35,48.74,10.11,10.11,0,0,1,20.52,58.92V116c0,21.68,11.19,33.2,29.54,33.2,18.18,0,29.36-10.84,29.36-32.37V58.92a10.26,10.26,0,0,1,20.52,0v56.9c0,34.87-19.68,52.39-50.22,52.39C19.35,168.21,0,150.69,0,116.82Z" fill="#007d64"/><path d="M116.15,53.75a9.94,9.94,0,0,1,10-10,10.08,10.08,0,0,1,10.18,10V157.2a10.1,10.1,0,0,1-20.19,0Z" fill="#007d64"/><path d="M156,142V95.63h-3.34a8.68,8.68,0,0,1,0-17.35H156v-15a10.1,10.1,0,0,1,20.19,0v15h15.85a8.68,8.68,0,1,1,0,17.35H176.22v43.21c0,7.85,4,11,10.85,11a47.57,47.57,0,0,0,5-.5,8.5,8.5,0,0,1,8.51,8.34,8.68,8.68,0,0,1-5.34,7.84,40.17,40.17,0,0,1-13.85,2.34C166.54,167.88,156,161.37,156,142Z" fill="#007d64"/><path d="M206.26,87.45a10,10,0,0,1,10-10.17,10.11,10.11,0,0,1,10.18,10.17v9c4.67-11,13.35-19.35,22.19-19.35,6.34,0,10,4.17,10,10a9.48,9.48,0,0,1-8,9.68c-14.35,2.5-24.2,13.51-24.2,34.37v26a10.08,10.08,0,0,1-10.18,10,9.94,9.94,0,0,1-10-10Z" fill="#007d64"/><path d="M255.16,141v-.33c0-19,14.85-28.37,36.37-28.37a73.57,73.57,0,0,1,23.7,3.68v-2.17c0-12.52-7.68-19.19-21.86-19.19a52.45,52.45,0,0,0-19.52,3.5,11.49,11.49,0,0,1-3.17.5,8.41,8.41,0,0,1-8.52-8.34,8.83,8.83,0,0,1,5.51-8A75.51,75.51,0,0,1,296,77.11c13.18,0,23,3.5,29.2,9.84,6.51,6.34,9.51,15.69,9.51,27.2v43.38a9.62,9.62,0,0,1-9.84,9.68c-5.85,0-9.85-4-9.85-8.51v-3.34c-6,7.18-15.19,12.85-28.7,12.85C269.84,168.21,255.16,158.7,255.16,141Zm60.4-6.34v-6a56.08,56.08,0,0,0-20-3.5c-13,0-20.69,5.51-20.69,14.69v.33c0,8.51,7.51,13.35,17.18,13.35C305.38,153.53,315.56,145.85,315.56,134.67Z" fill="#007d64"/><path d="M516.82,122.83v-.33c0-25.2,20-46.06,47-46.06S610.76,97,610.76,122.16v.34c0,25-20,45.88-47.22,45.88C536.67,168.38,516.82,147.85,516.82,122.83Zm73.75,0v-.33c0-15.53-11.18-28.37-27-28.37-16.18,0-26.53,12.68-26.53,28v.34c0,15.34,11.18,28.19,26.86,28.19C580.22,150.69,590.57,138,590.57,122.83Z" fill="#007d64"/><path d="M617.11,87.45a10,10,0,0,1,10-10.17,10.11,10.11,0,0,1,10.19,10.17v4.34c5.67-8.17,13.84-15.35,27.53-15.35,19.85,0,31.36,13.35,31.36,33.71v47a9.83,9.83,0,0,1-10,10,10,10,0,0,1-10.18-10V116.32c0-13.68-6.84-21.53-18.85-21.53-11.68,0-19.85,8.18-19.85,21.86V157.2a10.1,10.1,0,0,1-20.2,0Z" fill="#007d64"/><path d="M700.55,141v-.33c0-19,14.85-28.37,36.38-28.37A73.55,73.55,0,0,1,760.62,116v-2.17c0-12.52-7.68-19.19-21.86-19.19a52.49,52.49,0,0,0-19.52,3.5,11.43,11.43,0,0,1-3.17.5,8.4,8.4,0,0,1-8.51-8.34,8.83,8.83,0,0,1,5.51-8,75.49,75.49,0,0,1,28.36-5.17c13.18,0,23,3.5,29.21,9.84,6.5,6.34,9.5,15.69,9.5,27.2v43.38a9.62,9.62,0,0,1-9.85,9.68c-5.83,0-9.84-4-9.84-8.51v-3.34c-6,7.18-15.18,12.85-28.7,12.85C715.24,168.21,700.55,158.7,700.55,141Zm60.4-6.34v-6a56,56,0,0,0-20-3.5c-13,0-20.69,5.51-20.69,14.69v.33c0,8.51,7.51,13.35,17.19,13.35C750.78,153.53,761,145.85,761,134.67Z" fill="#007d64"/><path d="M790.16,87.45a10,10,0,0,1,10-10.17,10.11,10.11,0,0,1,10.19,10.17v4.34c5.67-8.17,13.85-15.35,27.53-15.35,19.85,0,31.36,13.35,31.36,33.71v47a9.83,9.83,0,0,1-10,10,10,10,0,0,1-10.17-10V116.32c0-13.68-6.85-21.53-18.86-21.53-11.68,0-19.85,8.18-19.85,21.86V157.2a10.1,10.1,0,0,1-20.2,0Z" fill="#007d64"/><path d="M966,157.2a10.09,10.09,0,0,1-20.18,0v-5.51c-6.51,9.18-15.69,16.52-30,16.52-20.69,0-40.88-16.52-40.88-45.71v-.34c0-29.2,19.86-45.72,40.88-45.72,14.52,0,23.7,7.18,30,15.52V53.75a10.09,10.09,0,0,1,20.18,0Zm-70.74-35v.34c0,17,11.68,28.19,25.36,28.19,13.52,0,25.53-11.34,25.53-28.19v-.34c0-17-12-28.2-25.53-28.2C906.81,94,895.3,104.64,895.3,122.16Z" fill="#007d64"/><path d="M969.06,122.83v-.33c0-25.2,20-46.06,47.05-46.06S1063,97,1063,122.16v.34c0,25-20,45.88-47.22,45.88C988.92,168.38,969.06,147.85,969.06,122.83Zm73.75,0v-.33c0-15.53-11.18-28.37-27-28.37-16.18,0-26.53,12.68-26.53,28v.34c0,15.34,11.18,28.19,26.86,28.19C1032.47,150.69,1042.81,138,1042.81,122.83Z" fill="#007d64"/><path d="M408.54,215a71.06,71.06,0,0,1-50.17-20.64,10,10,0,0,1,14-14.16A50.81,50.81,0,1,0,444,108.07a10,10,0,1,1,14-14.14c27.82,27.61,28.1,72.59.63,100.26A70.36,70.36,0,0,1,408.54,215Z" fill="#009ee2"/><path d="M408.21,154.08a10,10,0,0,1-7-2.88,70.8,70.8,0,0,1-21.09-50.08,70.49,70.49,0,0,1,70.49-71h.06a70.81,70.81,0,0,1,50.17,20.69,10,10,0,1,1-14,14.16A51,51,0,0,0,450.65,50h0A50.55,50.55,0,0,0,400,101a50.93,50.93,0,0,0,15.19,36,10,10,0,0,1-7,17.05Z" fill="#e5007e"/><path d="M408.32,244.87a102.64,102.64,0,0,1-72.12-29.4,10,10,0,0,1,14-14.23c32.23,31.65,84.29,31.63,116.05-.06a79.7,79.7,0,0,0,23.6-57.12,80.57,80.57,0,0,0-24.4-57.5,20.3,20.3,0,0,0-14.42-6h-.08a20.43,20.43,0,0,0-14.3,34.92,40.35,40.35,0,0,1-56,58.11l-.43-.27-.79-.77a100.46,100.46,0,0,1-30.35-71.73A99.4,99.4,0,0,1,378.5,29.58C418-9.8,482.63-9.87,522.61,29.43a10,10,0,0,1-14,14.22c-32.21-31.67-84.27-31.66-116,0A79.68,79.68,0,0,0,369,100.77a80.7,80.7,0,0,0,23.64,56.83l.38.23.8.8a20.48,20.48,0,0,0,28.9-.12,20.42,20.42,0,0,0-.12-28.86,40.35,40.35,0,0,1,28.25-69H451a40.11,40.11,0,0,1,28.43,11.72,100.4,100.4,0,0,1,.88,142.92A101.6,101.6,0,0,1,408.32,244.87Z" fill="#007d64"/></svg>