<svg xmlns="http://www.w3.org/2000/svg" viewBox="0 0 106.47 142.18"><path d="M83.17,74.21c.23-14.58.28-36.64-2.14-49.45C78.16,9.6,70.35,0,53.38,0S28.55,9.6,25.61,24.76c-2.42,12.51-2.49,34.71-2.34,49.48C26.73,72.61,30.12,71.16,33,70c.8-.33,10.74-4.1,13.86-5.31C41,60.36,35.35,49.43,34,42.82c-.72.94-1.25,4.82-1.44,7.1A20.77,20.77,0,0,1,32,38.78c1.58-8.16,5.61-15.69,11.85-20.44C50.86,29,60.35,31.34,69.52,37c-.54-1.31-.84-2-.88-2-7.58-9.3-12.37-11.77-15.43-15.5,11.33,4.29,18,9.93,20.72,20.58a44.51,44.51,0,0,1,.62,15.47c-.4-5.08-1.4-10.37-2.34-12.21-2,7.9-7,17.88-11.91,21.38,5,2,12.77,5.1,13.49,5.4,2.81,1.18,6.07,2.57,9.38,4.13Zm-41.59,12a33.76,33.76,0,0,0,3.89,7.22c2.35,3.46,5.06,6.76,7.77,10,2.72-3.26,5.43-6.56,7.78-10a34.56,34.56,0,0,0,3.9-7.23,35.36,35.36,0,0,1-11.67,1.84,35.28,35.28,0,0,1-11.67-1.84Z" fill="#fff" fill-rule="evenodd"/><path d="M7.47,90c3-4.19,10.65-8.45,18.53-12.12-4.13,11.82-2.88,27.14,1.52,38.28a5.82,5.82,0,1,0,3.76-1.78C27,103.46,25.92,87.63,31,76.49l.57-1.11c2-.85,3.9-1.66,5.7-2.4.52-.22.75.36.59.7-5.78,11.88,3.69,22.66,13.63,34.64l-2.34,7,4.05-4.9h0l1.48-1.8c10-12.1,19.69-22.95,13.87-34.92-.17-.34.06-.92.58-.7,3.49,1.44,7.44,3.11,11.34,4.92a29.38,29.38,0,0,1-.55,12c-5.66-.35-10.91,3-12.82,9.52-2.61,8.84-11.33,22.68.26,25.29a2.08,2.08,0,0,0,.91-4c-2.62-.59-2.91-2.7-2.29-5.47.9-4,3.77-10.07,5.1-14.6,3.17-10.76,18-7.42,16.22,3.65-.74,4.73-.76,11.43-1.64,15.37-.63,2.77-1.79,4.55-4.41,4a2.08,2.08,0,0,0-.91,4C92,130.27,90,114,91.45,104.91c1-6.66-2.19-11.91-7.43-14a36.4,36.4,0,0,0,1-10.79C91.15,83.2,96.6,86.63,99,90c4.27,5.95,6.27,40.34,7.45,52.17H0C1.11,131,3.29,95.84,7.47,90Z" fill="#fff" fill-rule="evenodd"/></svg>